<svg xmlns="http://www.w3.org/2000/svg" viewBox="0 0 346.19 75.16"><defs><style>.cls-1{fill:#339989;}</style></defs><title>Asset 4</title><g id="Layer_2" data-name="Layer 2"><g id="Layer_1-2" data-name="Layer 1"><path class="cls-1" d="M70.24,28.39l-30.62-27A5.49,5.49,0,0,0,38,.35,5,5,0,0,0,37,.09a5.27,5.27,0,0,0-1.94,0,5.13,5.13,0,0,0-1,.26,5.41,5.41,0,0,0-.87.43,4.59,4.59,0,0,0-.79.58L21.3,11.2V10.08a2.94,2.94,0,0,0-.05-.51,4,4,0,0,0-.15-.49,3.21,3.21,0,0,0-.24-.45,2.6,2.6,0,0,0-.33-.4,2.51,2.51,0,0,0-.4-.33,2.42,2.42,0,0,0-.45-.24,2.21,2.21,0,0,0-.5-.15,2.94,2.94,0,0,0-.51,0H12.15a3,3,0,0,0-.52,0,2.13,2.13,0,0,0-.49.15,2.42,2.42,0,0,0-.45.24,2.13,2.13,0,0,0-.4.33,2.6,2.6,0,0,0-.33.4,3.21,3.21,0,0,0-.24.45,2.13,2.13,0,0,0-.15.49,2.94,2.94,0,0,0-.05.51V21.62L1.84,28.39a5.41,5.41,0,0,0,3.58,9.47h.11A8.65,8.65,0,0,1,6,36.67a8.14,8.14,0,0,1,.65-1.1,7.91,7.91,0,0,1,1.77-1.82,8.25,8.25,0,0,1,1.09-.68,8,8,0,0,1,1.17-.49,7.68,7.68,0,0,1,2.51-.41h2a9.28,9.28,0,0,1,.08-1.05c0-.34.1-.69.17-1s.17-.68.28-1,.23-.66.37-1,.29-.63.46-.94.35-.6.55-.89a10.19,10.19,0,0,1,.64-.83c.23-.27.46-.52.71-.77s.51-.47.79-.69a10.1,10.1,0,0,1,.84-.62c.3-.19.6-.37.91-.53a10.26,10.26,0,0,1,.95-.44c.32-.13.65-.25,1-.35s.68-.18,1-.25a9,9,0,0,1,1-.15c.35,0,.69-.05,1-.05h20c.35,0,.69,0,1,.05a9,9,0,0,1,1,.15c.34.07.68.15,1,.25s.66.22,1,.35a10.26,10.26,0,0,1,1,.44c.31.16.61.34.91.53a10.1,10.1,0,0,1,.84.62c.28.22.54.45.79.69A11.91,11.91,0,0,1,55,26.27c.19.29.38.59.55.89s.32.62.46.94a8.94,8.94,0,0,1,.37,1c.11.33.2.67.28,1s.13.69.17,1,.07.7.08,1.05h2a7.68,7.68,0,0,1,1.27.1,8.31,8.31,0,0,1,1.24.3,8.19,8.19,0,0,1,1.18.5,8.48,8.48,0,0,1,1.08.67,9.62,9.62,0,0,1,1,.84,9.46,9.46,0,0,1,.82,1,8.08,8.08,0,0,1,.64,1.1,7.54,7.54,0,0,1,.47,1.19h.1A5.41,5.41,0,0,0,70.24,28.39Z"/><path class="cls-1" d="M24.29,40.18V51.44a2.5,2.5,0,0,0,.05.47,1.88,1.88,0,0,0,.14.46,2.1,2.1,0,0,0,.22.42,2.69,2.69,0,0,0,.3.37,1.79,1.79,0,0,0,.38.3,2.38,2.38,0,0,0,.41.23,2.69,2.69,0,0,0,.46.14,2.61,2.61,0,0,0,.48.05H45.34a2.61,2.61,0,0,0,.48-.05,2.35,2.35,0,0,0,.45-.14,2.55,2.55,0,0,0,.43-.23,2,2,0,0,0,.37-.3,2.2,2.2,0,0,0,.3-.37,2.82,2.82,0,0,0,.23-.42,2.42,2.42,0,0,0,.13-.46,1.88,1.88,0,0,0,.05-.47V40.18a7.93,7.93,0,0,1,.11-1.29,7.73,7.73,0,0,1,.31-1.26,8.36,8.36,0,0,1,.51-1.19,9.61,9.61,0,0,1,.7-1.09,8,8,0,0,1,.86-1,8.74,8.74,0,0,1,1-.81,8.29,8.29,0,0,1,1.12-.64,6.61,6.61,0,0,1,1.22-.45v-.06A7.26,7.26,0,0,0,53.47,31,7.76,7.76,0,0,0,53,29.53a7.16,7.16,0,0,0-.7-1.31,7.38,7.38,0,0,0-.94-1.15,7.91,7.91,0,0,0-1.14-.94,7.5,7.5,0,0,0-1.31-.7A7.76,7.76,0,0,0,47.53,25a7.36,7.36,0,0,0-1.48-.15H26a7.36,7.36,0,0,0-1.48.15,7,7,0,0,0-1.42.43,7.16,7.16,0,0,0-1.31.7,7.38,7.38,0,0,0-1.15.94,7.48,7.48,0,0,0-.94,1.15A7.56,7.56,0,0,0,18.6,31a7.26,7.26,0,0,0-.15,1.47v0a8.93,8.93,0,0,1,1.22.45,9.53,9.53,0,0,1,1.12.64,8,8,0,0,1,1,.82,8,8,0,0,1,.86,1,7.23,7.23,0,0,1,.7,1.09,8.36,8.36,0,0,1,.51,1.19,7.73,7.73,0,0,1,.31,1.26A7.83,7.83,0,0,1,24.29,40.18Z"/><path class="cls-1" d="M58.9,35.07H55.8a4.85,4.85,0,0,0-1,.1,4.72,4.72,0,0,0-.95.29,5,5,0,0,0-.89.47,5.23,5.23,0,0,0-.77.64,4.76,4.76,0,0,0-.64.77,5.71,5.71,0,0,0-.47.88,5.31,5.31,0,0,0-.29,1,5.56,5.56,0,0,0-.1,1V51.44a5.24,5.24,0,0,1-.1,1,4.43,4.43,0,0,1-.3,1,5.15,5.15,0,0,1-.49.93,5.77,5.77,0,0,1-.67.81,5.25,5.25,0,0,1-.81.67,5.41,5.41,0,0,1-.92.49,4.51,4.51,0,0,1-1,.3,5.17,5.17,0,0,1-1,.11H26.74a5.17,5.17,0,0,1-1-.11,5.87,5.87,0,0,1-1-.3,5.46,5.46,0,0,1-.92-.5,5.15,5.15,0,0,1-1.47-1.47,4.87,4.87,0,0,1-.49-.93,4.43,4.43,0,0,1-.3-1,4.58,4.58,0,0,1-.1-1V40.18a5.56,5.56,0,0,0-.1-1,6.26,6.26,0,0,0-.29-1,5,5,0,0,0-.48-.88,4.24,4.24,0,0,0-.63-.77,5.31,5.31,0,0,0-.78-.64,5.08,5.08,0,0,0-1.84-.76,4.68,4.68,0,0,0-1-.1H13.19a4.75,4.75,0,0,0-1,.1,4.62,4.62,0,0,0-1,.29,5,5,0,0,0-.89.47,5.81,5.81,0,0,0-.77.64,4.24,4.24,0,0,0-.63.77,5,5,0,0,0-.48.88,6.26,6.26,0,0,0-.29,1,5.55,5.55,0,0,0-.09,1V56.29a12.39,12.39,0,0,0,.17,2.1,11.94,11.94,0,0,0,.51,2,13.25,13.25,0,0,0,.84,1.93,13.75,13.75,0,0,0,1.15,1.77,12.34,12.34,0,0,0,1.42,1.56A14.06,14.06,0,0,0,13.84,67a13.65,13.65,0,0,0,1.84,1,13.06,13.06,0,0,0,2,.7l-1.06,3.17a2.77,2.77,0,0,0-.11.48,2.64,2.64,0,0,0,.07,1,2.45,2.45,0,0,0,.17.45,2.39,2.39,0,0,0,.26.41,2.82,2.82,0,0,0,.33.36,2.63,2.63,0,0,0,.4.28,2.28,2.28,0,0,0,.45.2,1.89,1.89,0,0,0,.47.11,2.72,2.72,0,0,0,.49,0,2.64,2.64,0,0,0,.49-.08,2.23,2.23,0,0,0,.45-.18,2.26,2.26,0,0,0,.42-.26,2.31,2.31,0,0,0,.36-.34,2.37,2.37,0,0,0,.28-.4,3.07,3.07,0,0,0,.2-.45l1.45-4.32H49.33l1.45,4.32a2.28,2.28,0,0,0,.2.45,2.76,2.76,0,0,0,.28.39,2.31,2.31,0,0,0,.36.34,3.54,3.54,0,0,0,.41.26,3.61,3.61,0,0,0,.46.17,2.67,2.67,0,0,0,.48.08,4,4,0,0,0,.49,0,2.26,2.26,0,0,0,.91-.32,2.14,2.14,0,0,0,.39-.28,3.61,3.61,0,0,0,.33-.35,2.76,2.76,0,0,0,.42-.87,2.43,2.43,0,0,0,.08-.47,2.38,2.38,0,0,0-.12-1l-1.06-3.15A12.76,12.76,0,0,0,58.25,67a12.57,12.57,0,0,0,3.08-2.86,12.29,12.29,0,0,0,1.15-1.78,13.25,13.25,0,0,0,.84-1.93,13.1,13.1,0,0,0,.52-2,13.52,13.52,0,0,0,.17-2.1V40.18a4.78,4.78,0,0,0-.1-1,5.31,5.31,0,0,0-.29-1,5.71,5.71,0,0,0-.47-.88,4.76,4.76,0,0,0-.64-.77,5.23,5.23,0,0,0-.77-.64,5.33,5.33,0,0,0-.88-.47,5,5,0,0,0-1-.29A4.85,4.85,0,0,0,58.9,35.07Z"/><path class="cls-1" d="M96,57.55a7,7,0,0,1-1,3.93,4.57,4.57,0,0,1-2.8,2l2.68,2.8H93.51L91.23,63.6l-.26,0h-.26A4.84,4.84,0,0,1,86.86,62a6.64,6.64,0,0,1-1.39-4.46,6.49,6.49,0,0,1,1.41-4.41,5.38,5.38,0,0,1,7.7,0A6.54,6.54,0,0,1,96,57.55Zm-9.63,0a6.07,6.07,0,0,0,1.12,3.93,4.5,4.5,0,0,0,6.47,0,6,6,0,0,0,1.13-3.93A5.91,5.91,0,0,0,94,53.67a3.91,3.91,0,0,0-3.22-1.37,4,4,0,0,0-3.25,1.37A6,6,0,0,0,86.36,57.55Z"/><path class="cls-1" d="M99.16,54.71v5.66a2.81,2.81,0,0,0,.55,1.94,2.29,2.29,0,0,0,1.73.58,3,3,0,0,0,2.29-.78,3.67,3.67,0,0,0,.75-2.58V54.71h.79v8.75h-.69l-.14-1.21h0a3.32,3.32,0,0,1-3,1.37q-3,0-3-3.2V54.71Z"/><path class="cls-1" d="M113.49,63.46l-.2-1.39h-.06a4.67,4.67,0,0,1-1.37,1.21,3.78,3.78,0,0,1-1.64.34,2.82,2.82,0,0,1-2-.67,2.35,2.35,0,0,1-.7-1.81,2.24,2.24,0,0,1,1.06-2,5.85,5.85,0,0,1,3.09-.75l1.67-.06v-.56a3,3,0,0,0-.51-1.88,1.93,1.93,0,0,0-1.63-.64,5.51,5.51,0,0,0-2.52.66l-.3-.68a6.62,6.62,0,0,1,2.84-.69,2.82,2.82,0,0,1,2.16.77,3.29,3.29,0,0,1,.7,2.32v5.82Zm-3.2-.57a3,3,0,0,0,2.19-.78,3.06,3.06,0,0,0,.81-2.24V59l-1.53.06a5.92,5.92,0,0,0-2.62.58,1.64,1.64,0,0,0-.79,1.51,1.66,1.66,0,0,0,.51,1.29A2.06,2.06,0,0,0,110.29,62.89Z"/><path class="cls-1" d="M117.7,63.46h-.79V51h.79Z"/><path class="cls-1" d="M121.42,63.46h-.78V54.71h.78Zm-.9-11.18c0-.51.16-.77.5-.77a.47.47,0,0,1,.4.2,1,1,0,0,1,.14.57,1.08,1.08,0,0,1-.14.58.44.44,0,0,1-.4.2C120.68,53.06,120.52,52.8,120.52,52.28Z"/><path class="cls-1" d="M126.66,62.91a5.27,5.27,0,0,0,1.33-.14v.65a4.27,4.27,0,0,1-1.33.2,2.23,2.23,0,0,1-1.74-.63,2.87,2.87,0,0,1-.54-1.93V55.4h-1.29v-.46l1.29-.37.4-2h.43v2.11h2.55v.69h-2.55v5.54a2.58,2.58,0,0,0,.34,1.49A1.3,1.3,0,0,0,126.66,62.91Z"/><path class="cls-1" d="M128.41,54.71h.82l1.86,4.9c.56,1.52.91,2.54,1.06,3.06h0c.23-.69.6-1.73,1.11-3.1l1.85-4.86H136l-3.91,10.16a7.89,7.89,0,0,1-.8,1.67,2.32,2.32,0,0,1-.75.66,2.2,2.2,0,0,1-1.05.23,3.36,3.36,0,0,1-1-.19v-.68a3.92,3.92,0,0,0,1,.12,1.28,1.28,0,0,0,.71-.2,1.6,1.6,0,0,0,.56-.59,7.66,7.66,0,0,0,.59-1.28c.22-.6.37-1,.44-1.15Z"/><path class="cls-1" d="M147.8,63.46V57.78a2.75,2.75,0,0,0-.57-1.92,2.19,2.19,0,0,0-1.71-.6,3,3,0,0,0-2.3.8,3.75,3.75,0,0,0-.72,2.56v4.84h-.79V51h.79v4l0,1.12h.06a2.92,2.92,0,0,1,1.23-1.14,4.21,4.21,0,0,1,1.87-.37q3,0,3,3.21v5.72Z"/><path class="cls-1" d="M158.66,59.07a5,5,0,0,1-1,3.36,3.55,3.55,0,0,1-2.86,1.19,3.7,3.7,0,0,1-2-.55,3.49,3.49,0,0,1-1.33-1.59,5.7,5.7,0,0,1-.47-2.41,5,5,0,0,1,1-3.33,3.58,3.58,0,0,1,2.84-1.21,3.52,3.52,0,0,1,2.84,1.23A4.93,4.93,0,0,1,158.66,59.07Zm-6.91,0a4.52,4.52,0,0,0,.78,2.82,2.73,2.73,0,0,0,2.26,1,2.68,2.68,0,0,0,2.24-1,4.52,4.52,0,0,0,.78-2.82,4.36,4.36,0,0,0-.8-2.8,3,3,0,0,0-4.48,0A4.42,4.42,0,0,0,151.75,59.07Z"/><path class="cls-1" d="M172,63.46V57.72a2.87,2.87,0,0,0-.5-1.86,1.86,1.86,0,0,0-1.53-.6,2.5,2.5,0,0,0-2,.74,3.54,3.54,0,0,0-.64,2.34v5.12h-.83v-6c0-1.47-.67-2.21-2-2.21a2.41,2.41,0,0,0-2,.8,4.17,4.17,0,0,0-.63,2.56v4.84h-.78V54.71h.64l.18,1.19h0a2.54,2.54,0,0,1,1-1,3,3,0,0,1,1.47-.37,2.52,2.52,0,0,1,2.66,1.57h0a2.92,2.92,0,0,1,1.15-1.16,3.26,3.26,0,0,1,1.63-.41,2.76,2.76,0,0,1,2.13.77,3.42,3.42,0,0,1,.73,2.44v5.72Z"/><path class="cls-1" d="M179.14,63.62a3.82,3.82,0,0,1-3-1.17,4.81,4.81,0,0,1-1-3.3,5.1,5.1,0,0,1,1-3.35,3.37,3.37,0,0,1,2.76-1.27,3,3,0,0,1,2.43,1.09,4.36,4.36,0,0,1,.91,2.92v.65h-6.3a4.14,4.14,0,0,0,.84,2.76,3,3,0,0,0,2.36.94,7.35,7.35,0,0,0,1.31-.1,7.44,7.44,0,0,0,1.45-.46v.72a6.6,6.6,0,0,1-1.37.45A7.42,7.42,0,0,1,179.14,63.62Zm-.24-8.36a2.65,2.65,0,0,0-2,.82,4,4,0,0,0-.9,2.4h5.41a3.76,3.76,0,0,0-.66-2.36A2.2,2.2,0,0,0,178.9,55.26Z"/><path class="cls-1" d="M193.74,57.53h4.35v5.36a9.63,9.63,0,0,1-3.84.73A5.62,5.62,0,0,1,190,62.05a6.23,6.23,0,0,1-1.47-4.45,6.85,6.85,0,0,1,.72-3.19,5.12,5.12,0,0,1,2.12-2.13,6.32,6.32,0,0,1,3.14-.77,8,8,0,0,1,3.44.71l-.32.74a7.46,7.46,0,0,0-3.16-.7,4.9,4.9,0,0,0-3.71,1.43,5.39,5.39,0,0,0-1.35,3.86,5.57,5.57,0,0,0,1.29,4,5.06,5.06,0,0,0,3.81,1.33,7.28,7.28,0,0,0,2.76-.46V58.3h-3.51Z"/><path class="cls-1" d="M206.14,63.46l-.21-1.39h-.06a4.44,4.44,0,0,1-1.37,1.21,3.7,3.7,0,0,1-1.63.34,2.82,2.82,0,0,1-2-.67,2.32,2.32,0,0,1-.71-1.81,2.25,2.25,0,0,1,1.07-2,5.84,5.84,0,0,1,3.08-.75l1.67-.06v-.56a3,3,0,0,0-.5-1.88,2,2,0,0,0-1.63-.64,5.51,5.51,0,0,0-2.52.66l-.3-.68a6.62,6.62,0,0,1,2.84-.69,2.78,2.78,0,0,1,2.15.77,3.29,3.29,0,0,1,.71,2.32v5.82Zm-3.21-.57a2.75,2.75,0,0,0,3-3V59l-1.53.06a6,6,0,0,0-2.62.58,1.65,1.65,0,0,0-.78,1.51,1.69,1.69,0,0,0,.5,1.29A2.06,2.06,0,0,0,202.93,62.89Z"/><path class="cls-1" d="M212.77,54.53a3.38,3.38,0,0,1,1.63.37,3.56,3.56,0,0,1,1.25,1.16h0c0-.67,0-1.33,0-2V51h.78V63.46h-.52l-.2-1.33h-.06a3.3,3.3,0,0,1-2.88,1.49A3.4,3.4,0,0,1,210,62.49a4.92,4.92,0,0,1-.95-3.28,5.43,5.43,0,0,1,.95-3.47A3.3,3.3,0,0,1,212.77,54.53Zm0,.73a2.49,2.49,0,0,0-2.16,1,5,5,0,0,0-.73,2.92q0,3.72,2.89,3.72a2.59,2.59,0,0,0,2.17-.86,4.51,4.51,0,0,0,.71-2.84v-.14a4.9,4.9,0,0,0-.69-2.91A2.58,2.58,0,0,0,212.77,55.26Z"/><path class="cls-1" d="M226.17,54.71v.55l-1.79.12a3.13,3.13,0,0,1,.7,2,2.7,2.7,0,0,1-.84,2.06,3.15,3.15,0,0,1-2.24.78,4,4,0,0,1-.84-.06,2.26,2.26,0,0,0-.73.61,1.14,1.14,0,0,0-.24.7.71.71,0,0,0,.3.63,2.38,2.38,0,0,0,1.09.18h1.51a3.5,3.5,0,0,1,2.18.58,2,2,0,0,1,.76,1.69,2.42,2.42,0,0,1-1.13,2.14,5.57,5.57,0,0,1-3.18.77,4.38,4.38,0,0,1-2.56-.65,2.06,2.06,0,0,1-.9-1.77,2.17,2.17,0,0,1,.54-1.51,3,3,0,0,1,1.53-.81,1.45,1.45,0,0,1-.64-.46,1.22,1.22,0,0,1-.23-.73A1.88,1.88,0,0,1,220.57,60a2.56,2.56,0,0,1-1.19-1,2.94,2.94,0,0,1-.42-1.56,2.71,2.71,0,0,1,.83-2.09,3.15,3.15,0,0,1,2.25-.81,3.82,3.82,0,0,1,1.33.18ZM219.1,64.93c0,1.21.89,1.81,2.68,1.81,2.3,0,3.45-.73,3.45-2.2a1.22,1.22,0,0,0-.55-1.12,3.23,3.23,0,0,0-1.75-.37H221.5C219.9,63.05,219.1,63.68,219.1,64.93Zm.67-7.5a2.1,2.1,0,0,0,.6,1.6,2.87,2.87,0,0,0,3.35,0,2.2,2.2,0,0,0,.58-1.62,2.14,2.14,0,0,0-.6-1.67,2.42,2.42,0,0,0-1.68-.56,2.23,2.23,0,0,0-1.65.6A2.2,2.2,0,0,0,219.77,57.43Z"/><path class="cls-1" d="M231.5,63.62a3.82,3.82,0,0,1-3-1.17,4.81,4.81,0,0,1-1.05-3.3,5.1,5.1,0,0,1,1-3.35,3.37,3.37,0,0,1,2.76-1.27,3,3,0,0,1,2.44,1.09,4.41,4.41,0,0,1,.9,2.92v.65h-6.3a4.14,4.14,0,0,0,.84,2.76,3,3,0,0,0,2.36.94,7.35,7.35,0,0,0,1.31-.1,7.24,7.24,0,0,0,1.45-.46v.72a6.6,6.6,0,0,1-1.37.45A7.42,7.42,0,0,1,231.5,63.62Zm-.24-8.36a2.65,2.65,0,0,0-2,.82,4,4,0,0,0-.9,2.4h5.42a3.7,3.7,0,0,0-.67-2.36A2.2,2.2,0,0,0,231.26,55.26Z"/><path class="cls-1" d="M239.31,62.91a5.27,5.27,0,0,0,1.33-.14v.65a4.22,4.22,0,0,1-1.33.2,2.19,2.19,0,0,1-1.73-.63,2.87,2.87,0,0,1-.55-1.93V55.4h-1.29v-.46l1.29-.37.41-2h.42v2.11h2.56v.69h-2.56v5.54a2.58,2.58,0,0,0,.34,1.49A1.3,1.3,0,0,0,239.31,62.91Z"/><path class="cls-1" d="M248,61.18A2.07,2.07,0,0,1,247,63a4.3,4.3,0,0,1-2.52.63,5.92,5.92,0,0,1-2.78-.55v-.86a6.12,6.12,0,0,0,2.78.66,3.73,3.73,0,0,0,2-.42,1.3,1.3,0,0,0,.68-1.15,1.39,1.39,0,0,0-.54-1.11,5.61,5.61,0,0,0-1.75-.88,10.65,10.65,0,0,1-1.86-.83,2.67,2.67,0,0,1-.8-.76,1.93,1.93,0,0,1-.26-1,1.78,1.78,0,0,1,.82-1.55,4,4,0,0,1,2.32-.59,6.66,6.66,0,0,1,2.68.55l-.3.72a6.28,6.28,0,0,0-2.38-.54,3.45,3.45,0,0,0-1.71.36,1.11,1.11,0,0,0-.63,1,1.35,1.35,0,0,0,.48,1.09,7.78,7.78,0,0,0,1.92.92,8.46,8.46,0,0,1,1.71.77,2.53,2.53,0,0,1,.81.78A1.86,1.86,0,0,1,248,61.18Z"/><path class="cls-1" d="M99.74,35.18H90.5V45.93h-6V19.2h6V29.9h9.24V19.2h6V45.93h-6Z"/><path class="cls-1" d="M118.81,46.42A10.18,10.18,0,0,1,114,45.29a8.46,8.46,0,0,1-3.32-3.09,8.57,8.57,0,0,1-1.21-4.53,8.67,8.67,0,0,1,1.21-4.55A8.58,8.58,0,0,1,114,30a10,10,0,0,1,4.85-1.16A9.79,9.79,0,0,1,123.63,30a8.42,8.42,0,0,1,3.26,3.14,8.83,8.83,0,0,1,1.17,4.55,8.73,8.73,0,0,1-1.17,4.53,8.3,8.3,0,0,1-3.26,3.09A10,10,0,0,1,118.81,46.42Zm0-5.06a3.45,3.45,0,0,0,1.82-.47,3.14,3.14,0,0,0,1.2-1.32,4.24,4.24,0,0,0,.42-1.92,4.29,4.29,0,0,0-.42-1.94,3.25,3.25,0,0,0-1.2-1.34,3.37,3.37,0,0,0-1.82-.49,3.43,3.43,0,0,0-1.83.49,3.3,3.3,0,0,0-1.22,1.34,4.17,4.17,0,0,0-.43,1.94,4.11,4.11,0,0,0,.43,1.92A3.18,3.18,0,0,0,117,40.89,3.51,3.51,0,0,0,118.81,41.36Z"/><path class="cls-1" d="M154.12,28.82a6.84,6.84,0,0,1,3.32.78A5.43,5.43,0,0,1,159.7,32a9.19,9.19,0,0,1,.82,4.17v9.76h-6.05V37.1a6.4,6.4,0,0,0-.53-2.81,2.1,2.1,0,0,0-2.09-1.08,2.88,2.88,0,0,0-1.64.49,3.19,3.19,0,0,0-1.09,1.35,4.94,4.94,0,0,0-.38,2.05v8.83h-5.65V37.1a6,6,0,0,0-.58-2.81,2.11,2.11,0,0,0-2-1.08,2.87,2.87,0,0,0-1.64.48A3,3,0,0,0,137.75,35a5.14,5.14,0,0,0-.37,2.07v8.83h-6.12V29.31h6.12v2.37a3.23,3.23,0,0,1,1.06-1.29,7.23,7.23,0,0,1,2-1.11,7.15,7.15,0,0,1,2.58-.46,6.2,6.2,0,0,1,2.47.44,4.68,4.68,0,0,1,1.63,1.16,6.66,6.66,0,0,1,1,1.58,4,4,0,0,1,1.12-1.47,6.81,6.81,0,0,1,2.11-1.22A7.38,7.38,0,0,1,154.12,28.82Z"/><path class="cls-1" d="M169,38.92a3,3,0,0,0,.57,1.6A3.34,3.34,0,0,0,171,41.6a5.32,5.32,0,0,0,2.14.38,8.61,8.61,0,0,0,2.12-.23,6.84,6.84,0,0,0,1.64-.61,4.49,4.49,0,0,0,1.08-.76l2.39,3.81a6.24,6.24,0,0,1-1.44,1.05,8.82,8.82,0,0,1-2.41.84,17.24,17.24,0,0,1-3.78.34,11.19,11.19,0,0,1-4.92-1,7.77,7.77,0,0,1-3.36-3,9.35,9.35,0,0,1-1.22-4.92,9.09,9.09,0,0,1,1-4.38A7.8,7.8,0,0,1,167.34,30a9.71,9.71,0,0,1,4.88-1.15,10.48,10.48,0,0,1,4.71,1A7.05,7.05,0,0,1,180,32.76a10.08,10.08,0,0,1,1.07,4.87v.64a3,3,0,0,1,0,.65Zm6.3-3.21a3.11,3.11,0,0,0-.34-1.3,2.62,2.62,0,0,0-1-1.06,3,3,0,0,0-1.66-.42,3.37,3.37,0,0,0-1.72.41,2.81,2.81,0,0,0-1,1,3.2,3.2,0,0,0-.43,1.34Z"/><path class="cls-1" d="M211.62,45.93h-7.26l-4.54-18.65h1.09l-4.53,18.65h-7.31L183,19.2h6.95L193.14,38h-.08l5-18.75h4.55L207.68,38h-.09l3.22-18.75h6.95Z"/><path class="cls-1" d="M224.68,25.89a3.48,3.48,0,0,1-3.48-3.47,3.42,3.42,0,0,1,1-2.46,3.37,3.37,0,0,1,2.46-1,3.31,3.31,0,0,1,1.75.48,3.73,3.73,0,0,1,1.27,1.26,3.49,3.49,0,0,1-3,5.23Zm-3.15,20V29.31h6.15V45.93Z"/><path class="cls-1" d="M231.49,29.31H248l-8.3,12.33h7.65v4.29H230.15l8.28-12.35h-6.94Z"/><path class="cls-1" d="M263,45.93V43.24a5,5,0,0,1-.92,1.17,7,7,0,0,1-1.95,1.39,6.22,6.22,0,0,1-2.84.62,7.63,7.63,0,0,1-4.25-1.19,8.07,8.07,0,0,1-2.83-3.18,10.11,10.11,0,0,1,0-8.85A8.13,8.13,0,0,1,253.07,30a7.56,7.56,0,0,1,4.25-1.2,7,7,0,0,1,2.74.5,6.55,6.55,0,0,1,1.9,1.17,4.52,4.52,0,0,1,1,1.25V29.31h6.12V45.93Zm-7.77-8.3a3.93,3.93,0,0,0,.52,2,3.74,3.74,0,0,0,1.41,1.41,3.84,3.84,0,0,0,1.95.51,3.75,3.75,0,0,0,2-.51,3.67,3.67,0,0,0,1.35-1.41,4.45,4.45,0,0,0,0-4.06,3.66,3.66,0,0,0-3.32-1.94,3.85,3.85,0,0,0-3.36,1.94A3.93,3.93,0,0,0,255.26,37.63Z"/><path class="cls-1" d="M278.62,45.93h-6.15V29.31h6.15v2.57h-.1a4.06,4.06,0,0,1,.79-1.19,6,6,0,0,1,1.76-1.29,6.71,6.71,0,0,1,4.9-.22,6.14,6.14,0,0,1,1.42.67l-2.39,5a3.26,3.26,0,0,0-1-.72,3.85,3.85,0,0,0-1.79-.38,3.18,3.18,0,0,0-2,.63A3.83,3.83,0,0,0,279,35.91a4.32,4.32,0,0,0-.38,1.68Z"/><path class="cls-1" d="M295.73,46.42a7.41,7.41,0,0,1-4.19-1.19,7.9,7.9,0,0,1-2.76-3.18,10.48,10.48,0,0,1,0-8.85A8,8,0,0,1,291.54,30a7.34,7.34,0,0,1,4.19-1.2,7.61,7.61,0,0,1,2.84.5,6.9,6.9,0,0,1,2,1.17,2.74,2.74,0,0,1,.93,1.25V18.07h6.16V45.93h-6.1V43.24a5,5,0,0,1-1.25,1.49,7.5,7.5,0,0,1-2.05,1.21A6.59,6.59,0,0,1,295.73,46.42Zm1.89-4.84a3.9,3.9,0,0,0,2-.51A3.62,3.62,0,0,0,301,39.66a4.37,4.37,0,0,0,0-4.06,3.65,3.65,0,0,0-1.39-1.42,3.81,3.81,0,0,0-2-.52,3.66,3.66,0,0,0-1.94.52,3.62,3.62,0,0,0-1.35,1.42,4.37,4.37,0,0,0,0,4.06,3.59,3.59,0,0,0,1.35,1.41A3.75,3.75,0,0,0,297.62,41.58Z"/><path class="cls-1" d="M316.85,45.93H310.7V29.31h6.15v2.57h-.1a4.06,4.06,0,0,1,.79-1.19,6,6,0,0,1,1.76-1.29,6,6,0,0,1,2.78-.58,6.85,6.85,0,0,1,3.54,1l-2.39,5a3.26,3.26,0,0,0-1-.72,3.85,3.85,0,0,0-1.79-.38,3.18,3.18,0,0,0-2,.63,3.83,3.83,0,0,0-1.17,1.52,4.32,4.32,0,0,0-.38,1.68Z"/><path class="cls-1" d="M335.66,40.61l4.5-11.3h6l-11.42,25h-6.15l3.84-8.42-6.94-16.62h6.13Z"/></g></g></svg>