<svg xmlns="http://www.w3.org/2000/svg" viewBox="0 0 72.08 75.16"><defs><style>.cls-1{fill:#339989;}</style></defs><title>Asset 5</title><g id="Layer_2" data-name="Layer 2"><g id="Layer_1-2" data-name="Layer 1"><path class="cls-1" d="M70.24,28.39l-30.62-27A5.49,5.49,0,0,0,38,.35,5,5,0,0,0,37,.09a5.27,5.27,0,0,0-1.94,0,5.13,5.13,0,0,0-1,.26,5.41,5.41,0,0,0-.87.43,4.59,4.59,0,0,0-.79.58L21.3,11.2V10.08a2.94,2.94,0,0,0-.05-.51,4,4,0,0,0-.15-.49,3.21,3.21,0,0,0-.24-.45,2.6,2.6,0,0,0-.33-.4,2.51,2.51,0,0,0-.4-.33,2.42,2.42,0,0,0-.45-.24,2.21,2.21,0,0,0-.5-.15,2.94,2.94,0,0,0-.51,0H12.15a3,3,0,0,0-.52,0,2.13,2.13,0,0,0-.49.15,2.42,2.42,0,0,0-.45.24,2.13,2.13,0,0,0-.4.33,2.6,2.6,0,0,0-.33.4,3.21,3.21,0,0,0-.24.45,2.13,2.13,0,0,0-.15.49,2.94,2.94,0,0,0-.05.51V21.62L1.84,28.39a5.41,5.41,0,0,0,3.58,9.47h.11A8.65,8.65,0,0,1,6,36.67a8.14,8.14,0,0,1,.65-1.1,7.91,7.91,0,0,1,1.77-1.82,8.25,8.25,0,0,1,1.09-.68,8,8,0,0,1,1.17-.49,7.68,7.68,0,0,1,2.51-.41h2a9.28,9.28,0,0,1,.08-1.05c0-.34.1-.69.17-1s.17-.68.28-1,.23-.66.37-1,.29-.63.46-.94.35-.6.55-.89a10.19,10.19,0,0,1,.64-.83c.23-.27.46-.52.71-.77s.51-.47.79-.69a10.1,10.1,0,0,1,.84-.62c.3-.19.6-.37.91-.53a10.26,10.26,0,0,1,.95-.44c.32-.13.65-.25,1-.35s.68-.18,1-.25a9,9,0,0,1,1-.15c.35,0,.69-.05,1-.05h20c.35,0,.69,0,1,.05a9,9,0,0,1,1,.15c.34.07.68.15,1,.25s.66.22,1,.35a10.26,10.26,0,0,1,1,.44c.31.16.61.34.91.53a10.1,10.1,0,0,1,.84.62c.28.22.54.45.79.69A11.91,11.91,0,0,1,55,26.27c.19.29.38.59.55.89s.32.62.46.94a8.94,8.94,0,0,1,.37,1c.11.33.2.67.28,1s.13.69.17,1,.07.7.08,1.05h2a7.68,7.68,0,0,1,1.27.1,8.31,8.31,0,0,1,1.24.3,8.19,8.19,0,0,1,1.18.5,8.48,8.48,0,0,1,1.08.67,9.62,9.62,0,0,1,1,.84,9.46,9.46,0,0,1,.82,1,8.08,8.08,0,0,1,.64,1.1,7.54,7.54,0,0,1,.47,1.19h.1A5.41,5.41,0,0,0,70.24,28.39Z"/><path class="cls-1" d="M24.29,40.18V51.44a2.5,2.5,0,0,0,.05.47,1.88,1.88,0,0,0,.14.46,2.1,2.1,0,0,0,.22.42,2.69,2.69,0,0,0,.3.37,1.79,1.79,0,0,0,.38.3,2.38,2.38,0,0,0,.41.23,2.69,2.69,0,0,0,.46.14,2.61,2.61,0,0,0,.48.05H45.34a2.61,2.61,0,0,0,.48-.05,2.35,2.35,0,0,0,.45-.14,2.55,2.55,0,0,0,.43-.23,2,2,0,0,0,.37-.3,2.2,2.2,0,0,0,.3-.37,2.82,2.82,0,0,0,.23-.42,2.42,2.42,0,0,0,.13-.46,1.88,1.88,0,0,0,.05-.47V40.18a7.93,7.93,0,0,1,.11-1.29,7.73,7.73,0,0,1,.31-1.26,8.36,8.36,0,0,1,.51-1.19,9.61,9.61,0,0,1,.7-1.09,8,8,0,0,1,.86-1,8.74,8.74,0,0,1,1-.81,8.29,8.29,0,0,1,1.12-.64,6.61,6.61,0,0,1,1.22-.45v-.06A7.26,7.26,0,0,0,53.47,31,7.76,7.76,0,0,0,53,29.53a7.16,7.16,0,0,0-.7-1.31,7.38,7.38,0,0,0-.94-1.15,7.91,7.91,0,0,0-1.14-.94,7.5,7.5,0,0,0-1.31-.7A7.76,7.76,0,0,0,47.53,25a7.36,7.36,0,0,0-1.48-.15H26a7.36,7.36,0,0,0-1.48.15,7,7,0,0,0-1.42.43,7.16,7.16,0,0,0-1.31.7,7.38,7.38,0,0,0-1.15.94,7.48,7.48,0,0,0-.94,1.15A7.56,7.56,0,0,0,18.6,31a7.26,7.26,0,0,0-.15,1.47v0a8.93,8.93,0,0,1,1.22.45,9.53,9.53,0,0,1,1.12.64,8,8,0,0,1,1,.82,8,8,0,0,1,.86,1,7.23,7.23,0,0,1,.7,1.09,8.36,8.36,0,0,1,.51,1.19,7.73,7.73,0,0,1,.31,1.26A7.83,7.83,0,0,1,24.29,40.18Z"/><path class="cls-1" d="M58.9,35.07H55.8a4.85,4.85,0,0,0-1,.1,4.72,4.72,0,0,0-.95.29,5,5,0,0,0-.89.47,5.23,5.23,0,0,0-.77.64,4.76,4.76,0,0,0-.64.77,5.71,5.71,0,0,0-.47.88,5.31,5.31,0,0,0-.29,1,5.56,5.56,0,0,0-.1,1V51.44a5.24,5.24,0,0,1-.1,1,4.43,4.43,0,0,1-.3,1,5.15,5.15,0,0,1-.49.93,5.77,5.77,0,0,1-.67.81,5.25,5.25,0,0,1-.81.67,5.41,5.41,0,0,1-.92.49,4.51,4.51,0,0,1-1,.3,5.17,5.17,0,0,1-1,.11H26.74a5.17,5.17,0,0,1-1-.11,5.87,5.87,0,0,1-1-.3,5.46,5.46,0,0,1-.92-.5,5.15,5.15,0,0,1-1.47-1.47,4.87,4.87,0,0,1-.49-.93,4.43,4.43,0,0,1-.3-1,4.58,4.58,0,0,1-.1-1V40.18a5.56,5.56,0,0,0-.1-1,6.26,6.26,0,0,0-.29-1,5,5,0,0,0-.48-.88,4.24,4.24,0,0,0-.63-.77,5.31,5.31,0,0,0-.78-.64,5.08,5.08,0,0,0-1.84-.76,4.68,4.68,0,0,0-1-.1H13.19a4.75,4.75,0,0,0-1,.1,4.62,4.62,0,0,0-1,.29,5,5,0,0,0-.89.47,5.81,5.81,0,0,0-.77.64,4.24,4.24,0,0,0-.63.77,5,5,0,0,0-.48.88,6.26,6.26,0,0,0-.29,1,5.55,5.55,0,0,0-.09,1V56.29a12.39,12.39,0,0,0,.17,2.1,11.94,11.94,0,0,0,.51,2,13.25,13.25,0,0,0,.84,1.93,13.75,13.75,0,0,0,1.15,1.77,12.34,12.34,0,0,0,1.42,1.56A14.06,14.06,0,0,0,13.84,67a13.65,13.65,0,0,0,1.84,1,13.06,13.06,0,0,0,2,.7l-1.06,3.17a2.77,2.77,0,0,0-.11.48,2.64,2.64,0,0,0,.07,1,2.45,2.45,0,0,0,.17.45,2.39,2.39,0,0,0,.26.41,2.82,2.82,0,0,0,.33.36,2.63,2.63,0,0,0,.4.28,2.28,2.28,0,0,0,.45.2,1.89,1.89,0,0,0,.47.11,2.72,2.72,0,0,0,.49,0,2.64,2.64,0,0,0,.49-.08,2.23,2.23,0,0,0,.45-.18,2.26,2.26,0,0,0,.42-.26,2.31,2.31,0,0,0,.36-.34,2.37,2.37,0,0,0,.28-.4,3.07,3.07,0,0,0,.2-.45l1.45-4.32H49.33l1.45,4.32a2.28,2.28,0,0,0,.2.45,2.76,2.76,0,0,0,.28.39,2.31,2.31,0,0,0,.36.34,3.54,3.54,0,0,0,.41.26,3.61,3.61,0,0,0,.46.17,2.67,2.67,0,0,0,.48.08,4,4,0,0,0,.49,0,2.26,2.26,0,0,0,.91-.32,2.14,2.14,0,0,0,.39-.28,3.61,3.61,0,0,0,.33-.35,2.76,2.76,0,0,0,.42-.87,2.43,2.43,0,0,0,.08-.47,2.38,2.38,0,0,0-.12-1l-1.06-3.15A12.76,12.76,0,0,0,58.25,67a12.57,12.57,0,0,0,3.08-2.86,12.29,12.29,0,0,0,1.15-1.78,13.25,13.25,0,0,0,.84-1.93,13.1,13.1,0,0,0,.52-2,13.52,13.52,0,0,0,.17-2.1V40.18a4.78,4.78,0,0,0-.1-1,5.31,5.31,0,0,0-.29-1,5.71,5.71,0,0,0-.47-.88,4.76,4.76,0,0,0-.64-.77,5.23,5.23,0,0,0-.77-.64,5.33,5.33,0,0,0-.88-.47,5,5,0,0,0-1-.29A4.85,4.85,0,0,0,58.9,35.07Z"/></g></g></svg>